<svg width="14" height="16" viewBox="0 0 14 16" fill="none" xmlns="http://www.w3.org/2000/svg">
<path d="M13.9995 6.56135C12.6233 6.56464 11.281 6.13547 10.162 5.33448V10.9209C10.1616 11.9556 9.84532 12.9654 9.25549 13.8155C8.66567 14.6656 7.83037 15.3154 6.8613 15.6779C5.89223 16.0404 4.83557 16.0985 3.83262 15.8443C2.82967 15.59 1.92823 15.0357 1.24884 14.2553C0.569449 13.475 0.144488 12.5058 0.0307804 11.4774C-0.082927 10.449 0.120039 9.41041 0.61254 8.50048C1.10504 7.59055 1.8636 6.85266 2.78679 6.38548C3.70998 5.91831 4.75379 5.74411 5.77866 5.88618V8.69595C5.30968 8.54844 4.80607 8.55288 4.33977 8.70865C3.87347 8.86442 3.46831 9.16355 3.18215 9.56332C2.89599 9.96309 2.74347 10.4431 2.74637 10.9347C2.74926 11.4263 2.90743 11.9044 3.19827 12.3008C3.48912 12.6972 3.89778 12.9915 4.36588 13.1418C4.83399 13.2921 5.33761 13.2906 5.80482 13.1375C6.27203 12.9845 6.67893 12.6878 6.96743 12.2897C7.25593 11.8916 7.41127 11.4125 7.41126 10.9209V0H10.162C10.16 0.23229 10.1795 0.464263 10.2201 0.692988V0.692988C10.3157 1.20358 10.5144 1.68931 10.8042 2.12045C11.0939 2.5516 11.4686 2.91911 11.9052 3.2005C12.5264 3.61126 13.2548 3.83019 13.9995 3.83003V6.56135Z" fill="currentColor"/>
</svg>
