<svg width="14" height="14" viewBox="0 0 14 14" fill="none" xmlns="http://www.w3.org/2000/svg">
<path d="M12.5609 4.14847C12.5698 4.27283 12.5698 4.39722 12.5698 4.52158C12.5698 8.3147 9.68275 12.6853 4.40609 12.6853C2.78045 12.6853 1.27031 12.2144 0 11.3972C0.230973 11.4238 0.453031 11.4327 0.692891 11.4327C2.03424 11.4327 3.26903 10.9797 4.25507 10.2069C2.99365 10.1802 1.93654 9.35406 1.57232 8.217C1.75 8.24363 1.92765 8.26141 2.11422 8.26141C2.37182 8.26141 2.62946 8.22586 2.86929 8.16371C1.55457 7.89719 0.568504 6.74238 0.568504 5.34771V5.31219C0.950469 5.52539 1.39467 5.65864 1.86545 5.67638C1.0926 5.16115 0.586277 4.28172 0.586277 3.28679C0.586277 2.7538 0.728383 2.26522 0.977129 1.83883C2.38957 3.57994 4.51268 4.71697 6.89336 4.84136C6.84895 4.62816 6.82229 4.4061 6.82229 4.18402C6.82229 2.60278 8.10149 1.31473 9.69158 1.31473C10.5177 1.31473 11.2639 1.66117 11.788 2.22082C12.4365 2.09646 13.0583 1.8566 13.6091 1.52793C13.3959 2.19418 12.9428 2.75383 12.3477 3.10913C12.9251 3.04698 13.4847 2.88705 13.9999 2.66499C13.6091 3.23349 13.1205 3.73982 12.5609 4.14847V4.14847Z" fill="currentColor"/>
</svg>
